Coordinates
version=1
nRows=27
nColumns=12
inDegrees=yes

Units are S.I. units (second, meters, Newtons, ...)
Angles are in degrees

endheader
time	SC_y	SC_z	SC_x	AC_y	AC_z	AC_x	GH_y	GH_z	GH_yy	EL_x	PS_y
       0.0              -52.54          11.67          3.568          42.01         -10.41         -3.398         -29.29          27.11          170.1          86.47          63.91
    0.0251              -52.54          11.67          3.568          42.01         -10.41         -3.395         -29.26           27.1          170.1          86.47          63.91
    0.0502              -52.53          11.67          3.568          42.01         -10.41         -3.392         -29.23           27.1          170.1          86.47          63.91
    0.0753              -52.53          11.67          3.568          42.01         -10.41         -3.388          -29.2           27.1          170.1          86.47           63.9
    0.1004              -52.52          11.67          3.568          42.01          -10.4         -3.385         -29.16           27.1          170.0          86.47           63.9
    0.1255              -52.52          11.68          3.568          42.01          -10.4         -3.381         -29.13           27.1          170.0          86.47           63.9
    0.1506              -52.51          11.68          3.568          42.01          -10.4         -3.376         -29.09          27.09          170.0          86.47          63.89
    0.1757               -52.5          11.68          3.568          42.01          -10.4         -3.372         -29.05          27.09          170.0          86.46          63.89
    0.2008               -52.5          11.69          3.568          42.01          -10.4         -3.367          -29.0          27.09          169.9          86.46          63.88
    0.2259              -52.49          11.69          3.568          42.01          -10.4         -3.362         -28.95          27.08          169.9          86.46          63.88
     0.251              -52.48          11.69          3.568          42.02          -10.4         -3.356          -28.9          27.08          169.9          86.46          63.87
    0.2761              -52.47           11.7          3.568          42.02          -10.4          -3.35         -28.85          27.08          169.9          86.46          63.87
    0.3012              -52.46           11.7          3.568          42.02          -10.4         -3.344         -28.79          27.07          169.8          86.45          63.86
    0.3263              -52.45          11.71          3.568          42.02         -10.39         -3.337         -28.72          27.07          169.8          86.45          63.85
    0.3514              -52.44          11.71          3.568          42.02         -10.39         -3.329         -28.65          27.06          169.7          86.45          63.84
    0.3765              -52.43          11.72          3.568          42.03         -10.39         -3.321         -28.58          27.06          169.7          86.45          63.84
    0.4016              -52.41          11.72          3.569          42.03         -10.39         -3.312         -28.49          27.05          169.7          86.44          63.83
    0.4267               -52.4          11.73          3.569          42.03         -10.39         -3.302          -28.4          27.05          169.6          86.44          63.82
    0.4518              -52.38          11.74          3.569          42.03         -10.38         -3.291         -28.31          27.04          169.6          86.44          63.81
    0.4769              -52.36          11.74          3.569          42.04         -10.38          -3.28          -28.2          27.03          169.5          86.43          63.79
     0.502              -52.34          11.75          3.569          42.04         -10.38         -3.267         -28.08          27.03          169.4          86.43          63.78
    0.5271              -52.32          11.76          3.569          42.04         -10.38         -3.253         -27.95          27.02          169.4          86.42          63.77
    0.5522               -52.3          11.77          3.569          42.05         -10.37         -3.237         -27.81          27.01          169.3          86.42          63.75
    0.5773              -52.27          11.78          3.569          42.05         -10.37          -3.22         -27.65           27.0          169.2          86.41          63.73
    0.6024              -52.24          11.79          3.569          42.06         -10.36         -3.201         -27.47          26.99          169.1          86.41          63.72
    0.6275              -52.21          11.81          3.569          42.06         -10.36         -3.179         -27.28          26.97          169.0           86.4          63.69
    0.6526              -52.17          11.82           3.57          42.07         -10.36         -3.155         -27.05          26.96          168.8          86.39          63.67
